<?xml version="1.0" encoding="iso-8859-1"?>
<!-- Generator: Adobe Illustrator 19.0.0, SVG Export Plug-In . SVG Version: 6.00 Build 0)  -->
<svg version="1.1" id="Capa_1" xmlns="http://www.w3.org/2000/svg" xmlns:xlink="http://www.w3.org/1999/xlink" x="0px" y="0px"
	 viewBox="0 0 480 480" style="enable-background:new 0 0 480 480;" xml:space="preserve">
<g>
	<path style="fill:#29485A;" d="M128,384h85.336v16H128V384z"/>
	<path style="fill:#29485A;" d="M265.832,384H352v16h-86.168V384z"/>
</g>
<g>
	<path style="fill:#333333;" d="M72,48h48c4.418,0,8,3.582,8,8v96c0,4.418-3.582,8-8,8H72c-4.418,0-8-3.582-8-8V56
		C64,51.582,67.582,48,72,48z"/>
	<path style="fill:#333333;" d="M360,48h48c4.418,0,8,3.582,8,8v96c0,4.418-3.582,8-8,8h-48c-4.418,0-8-3.582-8-8V56
		C352,51.582,355.582,48,360,48z"/>
	<path style="fill:#333333;" d="M72,336h48c4.418,0,8,3.582,8,8v96c0,4.418-3.582,8-8,8H72c-4.418,0-8-3.582-8-8v-96
		C64,339.582,67.582,336,72,336z"/>
</g>
<path style="fill:#29485A;" d="M232,296h16v72h-16V296z"/>
<path style="fill:#333333;" d="M360,336h48c4.418,0,8,3.582,8,8v96c0,4.418-3.582,8-8,8h-48c-4.418,0-8-3.582-8-8v-96
	C352,339.582,355.582,336,360,336z"/>
<circle style="fill:#0378A3;" cx="240" cy="392" r="32"/>
<g>
	<path style="fill:#29485A;" d="M248.664,96H352v16H248.664V96z"/>
	<path style="fill:#29485A;" d="M232,112.504h16v95.504h-16V112.504z"/>
	<path style="fill:#29485A;" d="M128,96h103.832v16H128V96z"/>
</g>
<circle style="fill:#0378A3;" cx="240" cy="104" r="16"/>
<path style="fill:#ED1C24;" d="M344,208v-16h-16V16c0-8.837-7.163-16-16-16H168c-8.837,0-16,7.163-16,16v176h-16v16h16v80h-16v16h16
	v176h16V59.312L211.312,16H232v16h16V16h28.248L312,58.904V480h16V303.664h15v-16h-15V208H344z M168,36.688V16h20.688L168,36.688z
	 M297.088,16H312v17.896L297.088,16z"/>
<path style="fill:#29ABE2;" d="M232,208h16c4.418,0,8,3.582,8,8v72c0,4.418-3.582,8-8,8h-16c-4.418,0-8-3.582-8-8v-72
	C224,211.582,227.582,208,232,208z"/>
<g>
</g>
<g>
</g>
<g>
</g>
<g>
</g>
<g>
</g>
<g>
</g>
<g>
</g>
<g>
</g>
<g>
</g>
<g>
</g>
<g>
</g>
<g>
</g>
<g>
</g>
<g>
</g>
<g>
</g>
</svg>
