<?xml version="1.0" encoding="iso-8859-1"?>
<!-- Generator: Adobe Illustrator 19.0.0, SVG Export Plug-In . SVG Version: 6.00 Build 0)  -->
<svg version="1.1" id="Capa_1" xmlns="http://www.w3.org/2000/svg" xmlns:xlink="http://www.w3.org/1999/xlink" x="0px" y="0px"
	 viewBox="0 0 480 480" style="enable-background:new 0 0 480 480;" xml:space="preserve">
<g>
	<path style="fill:#FDB62F;" d="M328,288v-16c5.896-0.025,11.07-3.935,12.704-9.6L360,195.6l15.384,4.4l-19.296,66.816
		C352.468,279.331,341.028,287.959,328,288L328,288z"/>
	<path style="fill:#FDB62F;" d="M352,248h48v16h-48V248z"/>
</g>
<path style="fill:#87CED9;" d="M126.832,112c-9.089,0-17.398,5.135-21.464,13.264L48,240h256V112H126.832z"/>
<path style="fill:#696969;" d="M88,472H24c-8.837,0-16-7.163-16-16v-88c0,17.673,14.327,32,32,32h64v56
	C104,464.837,96.837,472,88,472z"/>
<path style="fill:#5E5E5F;" d="M8,368v40c0,8.837,7.163,16,16,16h64c8.837,0,16-7.163,16-16v-8H40C22.327,400,8,385.673,8,368z"/>
<g>
	<path style="fill:#535354;" d="M32,384h16v88H32V384z"/>
	<path style="fill:#535354;" d="M64,384h16v88H64V384z"/>
</g>
<path style="fill:#4398D1;" d="M304,368H8v-96c0-17.673,14.327-32,32-32h264"/>
<path style="fill:#3E8CC7;" d="M8,368c0,17.673,14.327,32,32,32h264v-32H8z"/>
<path style="fill:#2A7DB8;" d="M304,336H168c-8.837,0-16-7.163-16-16v-32c0-8.837,7.163-16,16-16h136"/>
<path style="fill:#3E8CC7;" d="M152,296h152v16H152V296z"/>
<path style="fill:#EBEBEB;" d="M56,272h48c8.837,0,16,7.163,16,16v32c0,8.837-7.163,16-16,16H56c-8.837,0-16-7.163-16-16v-32
	C40,279.164,47.163,272,56,272z"/>
<path style="fill:#DEDEDE;" d="M104,320H56c-8.837,0-16-7.163-16-16v16c0,8.837,7.163,16,16,16h48c8.837,0,16-7.163,16-16v-16
	C120,312.837,112.837,320,104,320z"/>
<path style="fill:#71C4D1;" d="M168,240h136V112h-8L168,240z"/>
<path style="fill:#FDB62F;" d="M320,8v88c0.008,24.759,16.273,46.574,40,53.648V176h32v-26.352
	c23.727-7.074,39.992-28.889,40-53.648V8H320z"/>
<path style="fill:#FFA83D;" d="M400,8v88c-0.008,24.759-16.273,46.574-40,53.648V176h32v-26.352
	c23.727-7.074,39.992-28.889,40-53.648V8H400z"/>
<path style="fill:#FA962A;" d="M320,32h112v16H320V32z"/>
<path style="fill:#D64333;" d="M376,336h48v16h-48V336z"/>
<g>
	<path style="fill:#DE4C3C;" d="M440,240l32-16v-24h-40l-8-24H296v48h88l32,160h48L440,240z"/>
	<path style="fill:#DE4C3C;" d="M296,176l-32,16v16l32,16V176z"/>
	<path style="fill:#DE4C3C;" d="M288,160h16v80h-16V160z"/>
</g>
<g>
	<path style="fill:#FDB62F;" d="M480,480H352c-17.673,0-32-14.327-32-32s14.327-32,32-32h72c4.418,0,8-3.582,8-8v-24h16v24
		c0,13.255-10.745,24-24,24h-72c-8.837,0-16,7.163-16,16s7.163,16,16,16h128V480z"/>
	<g>
		<path id="SVGCleanerId_0" style="fill:#FDB62F;" d="M184,192h56v16h-56V192z"/>
	</g>
	<g>
		<path id="SVGCleanerId_1" style="fill:#FDB62F;" d="M188.421,159.186l7.155-14.311l47.999,23.999l-7.155,14.311L188.421,159.186z"
			/>
	</g>
	<g>
		<path id="SVGCleanerId_2" style="fill:#FDB62F;" d="M188.388,240.848l47.999-23.999l7.155,14.311l-47.999,23.999L188.388,240.848z
			"/>
	</g>
	<g>
		<path id="SVGCleanerId_3" style="fill:#FDB62F;" d="M152,192h16v16h-16V192z"/>
	</g>
	<g>
		<path id="SVGCleanerId_4" style="fill:#FDB62F;" d="M160,136h16v16h-16V136z"/>
	</g>
	<g>
		<path id="SVGCleanerId_5" style="fill:#FDB62F;" d="M136,160h16v16h-16V160z"/>
	</g>
</g>
<g>
	<path style="fill:#FDD26F;" d="M376,128c-17.673,0-32-14.327-32-32h16c0,8.837,7.163,16,16,16V128z"/>
	<path style="fill:#FDD26F;" d="M344,64h16v16h-16V64z"/>
</g>
<g>
	<path style="fill:#BF362C;" d="M440,344v16h20l-2.664-16H440z"/>
	<path style="fill:#BF362C;" d="M432,328h22.664L452,312h-20V328z"/>
	<path style="fill:#BF362C;" d="M424,296h25.336l-2.672-16H424V296z"/>
	<path style="fill:#BF362C;" d="M416,264h28l-2.664-16H416V264z"/>
</g>
<path d="M24,480h64c13.255,0,24-10.745,24-24v-48h192v-16H40c-1.48-0.01-2.956-0.16-4.408-0.448c-0.44-0.08-0.872-0.208-1.312-0.312
	c-0.98-0.243-1.944-0.545-2.888-0.904c-0.448-0.176-0.896-0.352-1.328-0.552c-0.935-0.432-1.841-0.923-2.712-1.472
	c-0.328-0.208-0.68-0.392-1-0.608c-1.14-0.795-2.211-1.687-3.2-2.664c-0.168-0.168-0.312-0.368-0.48-0.544
	c-0.796-0.842-1.534-1.737-2.208-2.68c-0.264-0.376-0.504-0.8-0.744-1.16c-0.519-0.833-0.99-1.696-1.408-2.584
	c-0.192-0.424-0.4-0.856-0.568-1.296c-0.104-0.248-0.152-0.52-0.248-0.8H304V360H16v-88c0-13.255,10.745-24,24-24h136v-16H60.944
	l51.576-103.16c2.699-5.431,8.247-8.858,14.312-8.84H296v-16H126.832c-12.133-0.041-23.233,6.819-28.624,17.688L43.056,232H40
	c-22.08,0.026-39.974,17.92-40,40v184C0,469.255,10.745,480,24,480z M80,408h16v48c0,4.418-3.582,8-8,8h-8V408z M48,408h16v56H48
	V408z M16,400c0.304,0.224,0.664,0.392,0.976,0.616c0.664,0.472,1.368,0.88,2.064,1.312c1.341,0.836,2.73,1.592,4.16,2.264
	c0.8,0.368,1.6,0.712,2.4,1.032c1.55,0.587,3.134,1.078,4.744,1.472c0.568,0.144,1.088,0.392,1.672,0.512V464H24
	c-4.418,0-8-3.582-8-8L16,400z"/>
<path d="M168,280h136v-16H168c-13.255,0-24,10.745-24,24v32c0,13.255,10.745,24,24,24h136v-16H168c-4.418,0-8-3.582-8-8v-8h144v-16
	H160v-8C160,283.582,163.582,280,168,280z"/>
<path d="M56,264c-13.255,0-24,10.745-24,24v32c0,13.255,10.745,24,24,24h48c13.255,0,24-10.745,24-24v-32c0-13.255-10.745-24-24-24
	H56z M112,288v32c0,4.418-3.582,8-8,8H56c-4.418,0-8-3.582-8-8v-32c0-4.418,3.582-8,8-8h48C108.418,280,112,283.582,112,288z"/>
<path d="M472,192h-34.232l-6.176-18.528c-1.089-3.268-4.147-5.473-7.592-5.472h-24v-12.688c24.091-9.874,39.873-33.276,40-59.312V8
	c0-4.418-3.582-8-8-8H320c-4.418,0-8,3.582-8,8v88c0.127,26.036,15.909,49.438,40,59.312V168h-48v-8h-16v11.056l-27.576,13.784
	c-2.712,1.355-4.425,4.128-4.424,7.16v16c-0.001,3.032,1.712,5.805,4.424,7.16L288,228.944V240h16v-8h45.392l-8.688,30.4
	c-1.634,5.665-6.808,9.575-12.704,9.6v16c13.028-0.041,24.468-8.669,28.088-21.184l0.8-2.816h26.952l14.4,72H376v16h25.44l6.72,33.6
	c0.76,3.725,4.038,6.401,7.84,6.4h16v16c0,4.418-3.582,8-8,8h-72c-17.673,0-32,14.327-32,32s14.327,32,32,32h128v-16H352
	c-8.837,0-16-7.163-16-16s7.163-16,16-16h72c13.255,0,24-10.745,24-24v-16h16c4.418-0.001,7.999-3.584,7.998-8.002
	c0-0.441-0.037-0.882-0.11-1.318l-23.024-138.168l26.712-13.312c2.725-1.362,4.441-4.153,4.424-7.2v-24
	C480,195.582,476.418,192,472,192L472,192z M288,211.056l-16-8v-6.112l16-8V211.056z M328,16h96v16h-96V16z M328,96V48h96v48
	c-0.096,21.193-14.004,39.845-34.288,45.984c-3.389,1.011-5.711,4.128-5.712,7.664V168h-16v-18.352
	c-0.001-3.536-2.323-6.653-5.712-7.664C342.004,135.845,328.096,117.193,328,96z M361.464,248l4.568-16h11.408l3.2,16H361.464z
	 M464,219.056l-27.576,13.784c-3.144,1.572-4.894,5.013-4.312,8.48l1.112,6.68H416v16h19.888l2.672,16H424v16h17.224l2.664,16H432
	v16h14.552l2.672,16H440v16h11.888l2.664,16h-32L391.84,222.4c-0.76-3.725-4.038-6.401-7.84-6.4h-80v-32h114.232l6.176,18.528
	c1.089,3.268,4.147,5.473,7.592,5.472h32V219.056z"/>
<path id="SVGCleanerId_0_1_" d="M184,192h56v16h-56V192z"/>
<path id="SVGCleanerId_1_1_" d="M188.421,159.186l7.155-14.311l47.999,23.999l-7.155,14.311L188.421,159.186z"/>
<path id="SVGCleanerId_2_1_" d="M188.388,240.848l47.999-23.999l7.155,14.311l-47.999,23.999L188.388,240.848z"/>
<path id="SVGCleanerId_3_1_" d="M152,192h16v16h-16V192z"/>
<path id="SVGCleanerId_4_1_" d="M160,136h16v16h-16V136z"/>
<path id="SVGCleanerId_5_1_" d="M136,160h16v16h-16V160z"/>
<path d="M376,112c-8.837,0-16-7.163-16-16h-16c0,17.673,14.327,32,32,32V112z"/>
<path d="M344,64h16v16h-16V64z"/>
<g>
</g>
<g>
</g>
<g>
</g>
<g>
</g>
<g>
</g>
<g>
</g>
<g>
</g>
<g>
</g>
<g>
</g>
<g>
</g>
<g>
</g>
<g>
</g>
<g>
</g>
<g>
</g>
<g>
</g>
</svg>
