<svg height="496pt" viewBox="0 0 496 496" width="496pt" xmlns="http://www.w3.org/2000/svg"><path d="m215.679688 437.199219c10.480468 1.839843 21.28125 2.800781 32.320312 2.800781s21.839844-.960938 32.320312-2.800781c37.359376-6.238281 71.039063-23.4375 97.757813-48l11.121094-11.121094c21.121093-22.957031 36.722656-50.957031 44.722656-82.078125 4-15.359375 6.078125-31.359375 6.078125-48 0-16.558594-2.078125-32.640625-6.078125-48-21.363281-82.800781-96.480469-144-185.921875-144-50.160156 0-95.839844 19.28125-130.078125 50.800781l-11.121094 11.121094c-21.121093 22.957031-36.722656 50.957031-44.722656 82.078125-4 15.359375-6.078125 31.359375-6.078125 48 0 16.558594 2.078125 32.640625 6.078125 48 18.722656 72.640625 78.800781 128.558594 153.601563 141.199219zm32.320312-429.199219c132.558594 0 240 107.441406 240 240s-107.441406 240-240 240-240-107.441406-240-240 107.441406-240 240-240zm0 0" fill="#969faa"/><g fill="#e6e9ed"><path d="m317.839844 328c-17.839844 17.441406-29.917969 41.039062-32.878906 67.601562l-4.640626 41.597657c-10.480468 1.839843-21.28125 2.800781-32.320312 2.800781s-21.839844-.960938-32.320312-2.800781l-4.640626-41.597657c-2.960937-26.5625-15.039062-50.160156-32.878906-67.601562l1.039063-.960938c5.839843 5.601563 13.679687 8.960938 22.242187 8.960938h93.117188c8.5625 0 16.402344-3.359375 22.242187-8.960938zm0 0"/><path d="m62.078125 200h96.242187l1.039063.640625c-4.71875 7.679687-7.359375 16.640625-7.359375 26.320313 0 3.359374.320312 6.71875.960938 10l17.277343 74.320312c1.441407 6.160156 4.640625 11.597656 8.960938 15.757812l-1.039063.960938c-20.320312-19.921875-48.082031-32-78.398437-32h-37.683594c-4-15.359375-6.078125-31.441406-6.078125-48 0-16.640625 2.078125-32.640625 6.078125-48zm0 0"/><path d="m325.761719 311.28125 17.277343-74.320312c.640626-3.28125.960938-6.640626.960938-10 0-9.679688-2.640625-18.640626-7.359375-26.320313l1.039063-.640625h96.242187c4 15.359375 6.078125 31.441406 6.078125 48 0 16.640625-2.078125 32.640625-6.078125 48h-37.683594c-30.316406 0-58.078125 12.078125-78.398437 32l-1.039063-.960938c4.320313-4.160156 7.519531-9.597656 8.960938-15.757812zm0 0"/></g><path d="m408 240v16c0 4.398438-3.601562 8-8 8h-16c-4.398438 0-8-3.601562-8-8v-16c0-4.398438 3.601562-8 8-8h16c4.398438 0 8 3.601562 8 8zm0 0" fill="#a0d468"/><path d="m344 226.960938c0 3.359374-.320312 6.71875-.960938 10l-17.277343 74.320312c-1.441407 6.160156-4.640625 11.597656-8.960938 15.757812-5.839843 5.601563-13.679687 8.960938-22.242187 8.960938h-93.117188c-8.5625 0-16.402344-3.359375-22.242187-8.960938-4.320313-4.160156-7.519531-9.597656-8.960938-15.757812l-17.277343-74.320312c-.640626-3.28125-.960938-6.640626-.960938-10 0-9.679688 2.640625-18.640626 7.359375-26.320313 8.878906-14.800781 25.121094-24.640625 43.601563-24.640625h90.078124c14.082032 0 26.800782 5.679688 36.082032 14.878906 2.878906 2.960938 5.4375 6.160156 7.519531 9.761719 4.71875 7.679687 7.359375 16.640625 7.359375 26.320313zm0 0" fill="#fcd770"/><path d="m312 226.960938c0 1.117187-.078125 2.238281-.320312 3.277343l-17.121094 73.761719h-93.117188l-17.121094-73.761719c-.242187-1.039062-.320312-2.160156-.320312-3.277343 0-10.480469 8.480469-18.960938 18.960938-18.960938h90.078124c10.480469 0 18.960938 8.480469 18.960938 18.960938zm0 0" fill="#cf9e76"/><path d="m264 256c0 8.835938-7.164062 16-16 16s-16-7.164062-16-16 7.164062-16 16-16 16 7.164062 16 16zm0 0" fill="#a0d468"/><path d="m248 0c-136.753906 0-248 111.257812-248 248s111.246094 248 248 248 248-111.257812 248-248-111.246094-248-248-248zm0 480c-127.921875 0-232-104.070312-232-232s104.078125-232 232-232 232 104.070312 232 232-104.078125 232-232 232zm0 0"/><path d="m195.070312 312h105.859376l18.644531-80.304688c.273437-1.535156.425781-3.136718.425781-4.742187 0-14.863281-12.097656-26.953125-26.953125-26.953125h-90.09375c-14.855469 0-26.953125 12.089844-26.953125 26.953125 0 1.605469.152344 3.207031.503906 5.125zm7.882813-96h90.09375c6.042969 0 10.953125 4.910156 10.953125 10.953125 0 .640625-.054688 1.277344-.089844 1.511719l-15.6875 67.535156h-80.445312l-15.601563-67.152344c-.121093-.617187-.175781-1.253906-.175781-1.894531 0-6.042969 4.910156-10.953125 10.953125-10.953125zm0 0"/><path d="m400 224h-16c-8.824219 0-16 7.175781-16 16v16c0 8.824219 7.175781 16 16 16h16c8.824219 0 16-7.175781 16-16v-16c0-8.824219-7.175781-16-16-16zm-16 32v-16h16l.007812 16zm0 0"/><path d="m96 224h16v16h-16zm0 0"/><path d="m96 256h16v16h-16zm0 0"/><path d="m112 240h16v16h-16zm0 0"/><path d="m80 240h16v16h-16zm0 0"/><path d="m248 280c13.230469 0 24-10.769531 24-24s-10.769531-24-24-24-24 10.769531-24 24 10.769531 24 24 24zm0-32c4.414062 0 8 3.59375 8 8s-3.585938 8-8 8-8-3.59375-8-8 3.585938-8 8-8zm0 0"/><path d="m248 48c-50.335938 0-98.449219 18.792969-135.472656 52.902344l10.839844 11.769531c34.066406-31.382813 78.320312-48.671875 124.632812-48.671875 81.9375 0 151.511719 53.847656 175.257812 128h-82.851562c-10.75-14.527344-27.949219-24-47.367188-24h-90.085937c-19.417969 0-36.617187 9.472656-47.367187 24h-82.707032c8.074219-25.257812 21.441406-48.710938 39.785156-68.625l-11.769531-10.839844c-34.101562 37.023438-52.894531 85.128906-52.894531 135.464844 0 110.28125 89.71875 200 200 200 50.335938 0 98.449219-18.792969 135.472656-52.902344l-10.839844-11.769531c-23.679687 21.816406-52.335937 36.632813-83.136718 43.75l3.398437-30.566406c5.847657-52.734375 50.28125-92.511719 103.34375-92.511719h26.882813c-8.074219 25.257812-21.441406 48.710938-39.785156 68.625l11.769531 10.839844c34.101562-37.023438 52.894531-85.128906 52.894531-135.464844 0-110.28125-89.71875-200-200-200zm-45.046875 136h90.09375c23.6875 0 42.953125 19.273438 42.953125 42.953125 0 2.839844-.28125 5.664063-.785156 8.183594l-17.253906 74.296875c-2.535157 10.925781-12.152344 18.566406-23.386719 18.566406h-93.148438c-11.226562 0-20.839843-7.640625-23.386719-18.566406l-17.199218-74.066406c-.558594-2.742188-.839844-5.574219-.839844-8.414063 0-23.679687 19.265625-42.953125 42.953125-42.953125zm-55.769531 24c-2.03125 5.960938-3.183594 12.320312-3.183594 18.953125 0 3.894531.390625 7.789063 1.199219 11.808594l15.28125 65.789062c-17.871094-10.503906-38.625-16.550781-60.71875-16.550781h-31.328125c-2.875-12.886719-4.433594-26.265625-4.433594-40 0-13.59375 1.664062-26.96875 4.558594-40zm-74.441406 96h27.019531c53.0625 0 97.503906 39.777344 103.359375 92.511719l3.414062 30.710937c-63.296875-14.628906-114.175781-61.976562-133.792968-123.222656zm204.234374 90.753906-3.929687 35.351563c-8.261719 1.125-16.597656 1.894531-25.046875 1.894531-8.496094 0-16.839844-.625-25.03125-1.742188l-3.945312-35.503906c-2.070313-18.625-8.351563-35.824218-17.765626-50.769531.054688 0 .109376.015625.167969.015625h93.160157c.054687 0 .109374-.015625.167968-.015625-9.425781 14.9375-15.707031 32.136719-17.777344 50.769531zm119.261719-106.753906c-22.09375 0-42.847656 6.046875-60.726562 16.542969l15.335937-66.015625c.761719-3.785156 1.152344-7.679688 1.152344-11.574219 0-6.640625-1.152344-12.992187-3.183594-18.953125h78.75c2.875 12.886719 4.433594 26.265625 4.433594 40 0 13.59375-1.664062 26.96875-4.558594 40zm0 0"/></svg>